<?xml version="1.0" encoding="UTF-8" standalone="no"?>
<svg width="451px" height="450px" viewBox="0 0 451 450" version="1.1" xmlns="http://www.w3.org/2000/svg" xmlns:xlink="http://www.w3.org/1999/xlink" xmlns:sketch="http://www.bohemiancoding.com/sketch/ns">
    <title>Final</title>
    <description>Created with Sketch (http://www.bohemiancoding.com/sketch)</description>
    <defs></defs>
    <g id="Page-1" stroke="none" stroke-width="1" fill="none" fill-rule="evenodd" sketch:type="MSPage">
        <g id="Logo" sketch:type="MSLayerGroup">
            <g id="Image" sketch:type="MSShapeGroup">
                <path d="M208.137074,1.06651376 C211.424898,0.67087156 214.701247,-0.0573394495 218.029237,0.0802752294 C226.096743,0.217889908 234.227366,-0.252293578 242.22028,1.09518349 C255.153537,3.29701835 267.799898,7.76376147 278.919975,14.7821101 C289.219529,20.3211009 297.212443,29.0366972 305.228308,37.3509174 C316.692659,49.9770642 323.721603,66.0779817 327.623384,82.5344037 C328.696374,88.2224771 329.660344,93.9449541 329.740674,99.7477064 C330.211183,102.419725 330.325941,105.154817 329.798053,107.832569 C329.64313,112.368119 329.149669,116.886468 328.311934,121.353211 C331.949771,121.62844 335.501539,120.470183 339.145115,120.544725 C345.451081,119.569954 351.820165,120.40711 358.120394,120.888761 C380.647443,123.497706 402.193308,133.744266 418.431603,149.558486 C431.158295,161.639908 440.683232,177.047018 445.904733,193.790138 C449.083537,203.595183 450.47785,213.899083 450.868028,224.174312 C450.644249,241.169725 446.759682,258.228211 438.715127,273.262615 C431.204198,287.723624 420.181667,300.280963 407.007417,309.850917 C393.620865,319.392202 378.030954,325.854358 361.758232,328.302752 C356.737557,329.18578 351.636552,329.294725 346.575712,329.770642 C340.499262,329.868119 334.468715,328.279817 328.392265,328.858945 C329.034911,332.740826 329.660344,336.634174 329.717723,340.573394 C330.348893,344.174312 330.297252,347.87844 329.729198,351.490826 C328.329148,376.261468 317.771387,400.521789 300.201896,418.113532 C291.474529,427.362385 280.956934,434.885321 269.383562,440.149083 C262.957099,442.775229 256.662608,445.888761 249.771374,447.115826 C244.240025,448.428899 238.605394,449.220183 232.959288,449.822248 C226.02215,449.954128 219.004682,450.349771 212.130662,449.220183 C195.484975,447.190367 179.447506,440.87156 165.693728,431.318807 C162.147697,428.119266 157.832786,425.87156 154.579389,422.33945 C141.456781,410.212156 131.243295,394.827982 125.786539,377.780963 C123.789746,371.811927 122.699542,365.59633 121.437201,359.449541 C121.316705,354.862385 120.490445,350.326835 120.272405,345.756881 C120.909313,339.891055 121.069975,333.96789 122.068372,328.15367 C115.997659,328.58945 109.955636,329.690367 103.856234,329.793578 C97.6248601,329.311927 91.3705344,328.956422 85.225229,327.763761 C62.0038931,323.491972 40.4408142,311.055046 25.1091094,293.119266 C10.9708906,276.800459 1.9566285,256.009174 0.0975445293,234.478211 C0.0918066158,227.821101 -0.011475827,221.158257 0.160661578,214.501147 C2.35254453,191.720183 12.4627481,169.827982 28.184631,153.211009 C45.4500127,134.83945 69.509084,122.826835 94.6870483,120.665138 C100.201183,120.252294 105.772697,119.678899 111.281094,120.538991 C114.890242,120.590596 118.464962,121.146789 122.005254,121.829128 C122.010992,120.779817 122.022468,119.724771 121.861807,118.686927 C121.104402,114.873853 121.064237,110.963303 120.381425,107.133028 C120.060102,104.873853 120.398639,102.608945 120.702748,100.366972 C121.339656,83.8876147 125.970153,67.5573394 134.026183,53.1536697 C137.090229,48.2454128 140.028041,43.1938073 143.93556,38.8933486 C146.563524,35.625 149.730852,32.8440367 152.65145,29.8394495 C154.820382,27.7866972 156.6393,25.3784404 158.974631,23.5034404 C173.101374,12.0240826 190.165929,4.07110092 208.137074,1.06651376 L208.137074,1.06651376 Z" id="Shape" fill="#030303"></path>
                <path d="M214.873384,42.3509174 C219.348957,41.8692661 223.887646,42.0126147 228.391908,41.9896789 C241.187455,42.8841743 253.965789,46.9094037 264.230916,54.7534404 C269.854071,59.4323394 275.035407,64.7362385 279.017519,70.9002294 C281.117595,73.7844037 282.816018,76.9552752 283.894746,80.3612385 C287.32028,88.2396789 288.771972,96.9323394 288.462125,105.498853 C288.662952,114.18578 286.172697,122.694954 282.787328,130.613532 C281.467608,132.87844 280.239695,135.235092 278.5757,137.276376 C273.916514,142.379587 269.045025,147.287844 264.294033,152.31078 C257.615102,160.860092 249.054135,167.706422 242.162901,176.083716 C239.259517,179.461009 236.149567,182.666284 232.804364,185.607798 C230.250992,187.889908 228.122226,190.619266 225.425407,192.740826 C224.295038,192.66055 223.606489,191.456422 222.768753,190.802752 C217.346425,185.126147 211.631463,179.730505 206.473079,173.813073 C202.720483,169.730505 198.646565,165.946101 195.083321,161.697248 C187.216641,153.302752 179.195038,145.063073 171.322621,136.68578 C167.753639,132.436927 165.527328,127.28211 163.610865,122.12156 C162.141959,118.182339 161.746043,113.956422 161.097659,109.833716 C160.782074,104.879587 160.661578,99.8451835 161.677188,94.9598624 C163.04855,81.5309633 170.358651,69.2431193 180.061463,60.0917431 C182.259084,58.125 184.25014,55.8887615 186.757608,54.3004587 C190.435611,52.0355505 193.861145,49.3004587 197.935064,47.7408257 C203.454936,45.5905963 209.066616,43.5894495 214.873384,42.3509174 L214.873384,42.3509174 Z" id="Shape" fill="#5AE05A"></path>
                <path d="M312.366272,172.190367 C319.82556,166.783257 328.943104,163.933486 338.020483,162.809633 C349.915178,161.456422 362.194313,163.365826 372.98159,168.606651 C382.053232,173.107798 390.063359,179.776376 396.11112,187.901376 C405.125382,199.776376 409.279631,215.074541 408.080407,229.879587 C407.518092,233.010321 407.311527,236.192661 406.58855,239.294725 C404.316336,249.260321 399.496489,258.629587 392.697061,266.267202 C383.327048,276.611239 370.525763,284.116972 356.651489,286.272936 C351.085712,287.568807 345.330585,287.098624 339.667265,287.047018 C329.930025,286.215596 319.928842,283.618119 312.148232,277.459862 C298.962506,265.630734 286.339097,253.205275 273.216489,241.301606 C267.461361,235.797018 261.459504,230.533257 255.945369,224.78211 C259.405331,221.169725 263.031692,217.71789 266.818715,214.449541 C270.525407,210.493119 274.869008,207.224771 278.581438,203.279817 C279.625738,202.236239 280.675776,201.192661 281.811883,200.252294 C285.334962,197.494266 288.11785,193.922018 291.66388,191.181193 C298.520687,184.81078 305.297163,178.331422 312.366272,172.190367 L312.366272,172.190367 Z" id="Shape" fill="#EA59E9"></path>
                <path d="M66.7720992,174.483945 C77.6856107,165.825688 91.6803817,161.290138 105.577608,161.502294 C117.960025,161.995413 130.939186,165.447248 140.050992,174.271789 C144.34869,177.786697 147.986527,182.018349 152.312913,185.504587 C156.409784,189.83945 161.097659,193.543578 165.234695,197.838303 C167.374936,199.913991 169.790598,201.680046 171.839033,203.853211 C175.212926,207.373853 179.011425,210.43578 182.419746,213.922018 C186.132176,217.649083 189.94215,221.27867 193.832455,224.822248 C189.907723,229.243119 185.340344,233.050459 181.03117,237.09289 C166.864262,250.65367 152.508003,264.025229 138.048461,277.276376 C132.167099,282.631881 124.805356,286.209862 117.041959,287.849771 C107.603092,289.805046 97.6592875,289.707569 88.3696056,287.029817 C71.8501527,282.482798 57.4709415,270.745413 49.6501654,255.521789 C45.9664249,248.881881 43.6196183,241.485092 42.7990967,233.93922 C40.3317939,218.950688 43.7343766,203.056193 52.1633715,190.40711 C56.0077735,184.260321 60.8505725,178.72133 66.7720992,174.483945 L66.7720992,174.483945 Z" id="Shape" fill="#5DE8E9"></path>
                <path d="M224.444224,256.943807 C225.700827,255.590596 227.12383,257.517202 228.064847,258.331422 C233.188804,263.72133 238.083244,269.340596 243.258842,274.690367 C247.688511,278.870413 251.452583,283.681193 255.847824,287.90711 C258.670878,291.376147 261.975916,294.397936 264.953893,297.735092 C268.230242,301.880734 272.22383,305.384174 275.678053,309.380734 C278.323232,312.207569 280.199529,315.613532 282.156158,318.927752 C282.873397,320.194954 283.384071,321.576835 283.860318,322.958716 C286.666158,331.381881 287.532583,340.355505 287.216997,349.197248 C287.262901,354.300459 285.748092,359.21445 284.738219,364.168578 C283.757036,368.199541 281.788931,371.863532 279.924109,375.538991 C275.666578,382.998853 269.77374,389.409404 263.157926,394.850917 C259.784033,397.511468 256.008486,399.615826 252.301794,401.771789 C248.061476,403.761468 243.603117,405.298165 239.064427,406.43922 C234.915916,406.84633 230.841997,408.044725 226.641845,407.832569 C222.183486,407.66055 217.587417,408.394495 213.283982,406.886468 C200.522863,404.220183 188.582265,397.654817 179.763092,388.027523 C177.984338,385.974771 175.953117,384.145642 174.426832,381.897936 C170.880802,376.353211 167.220013,370.65367 165.791272,364.139908 C165.211743,361.049312 163.937926,358.113532 163.662506,354.965596 C162.859198,347.299312 162.979695,339.512615 164.374008,331.915138 C165.051081,326.456422 167.323295,321.370413 169.773384,316.49656 C172.401349,311.336009 176.756425,307.413991 180.623779,303.205275 C186.36743,297.276376 191.898779,291.152523 197.550623,285.143349 C200.178588,282.413991 203.064758,279.919725 205.336972,276.869266 C208.515776,272.993119 212.411819,269.776376 215.579148,265.888761 C218.407939,262.792431 221.506412,259.936927 224.444224,256.943807 L224.444224,256.943807 Z" id="Shape" fill="#F9FA4B"></path>
            </g>
        </g>
    </g>
</svg>